<svg width="848" height="826" viewBox="0 0 848 826" fill="none" xmlns="http://www.w3.org/2000/svg">
<path d="M0.451355 826H222.389L240.813 776.455C247.309 758.893 260.674 744.791 277.767 737.075C293.848 729.784 315.467 716.639 336.446 693.064C377.234 647.297 398.906 598.178 398.906 598.178L261.367 597.486C261.367 597.486 273.72 520.588 205.403 418.465C198.108 407.555 194.753 394.411 195.925 381.319L202.315 306.922C202.315 306.922 248.747 255.036 220.259 190.696C220.259 190.696 192.996 152.965 182.187 166.802C182.187 166.802 99.8654 362.693 92.3574 391.856C84.8495 420.966 74.8921 439.273 84.8495 530.859C87.5119 555.073 88.4703 575.295 88.4171 591.952C88.3638 623.882 81.2286 655.333 67.5971 684.177L0.451355 826Z" fill="#F6C19D"/>
<path opacity="0.2" d="M207.426 698.918C186.819 676.088 158.225 679.654 128.14 669.223C98.0549 658.792 88.417 583.65 88.417 583.65C88.4703 586.471 88.4703 589.238 88.4703 591.899C88.417 623.829 81.2818 655.28 67.6503 684.124L0.504578 826H222.442L240.866 776.455C247.362 758.894 260.728 744.791 277.82 737.075C291.505 730.901 309.183 720.418 327.075 702.909C265.893 728.613 228.033 721.748 207.426 698.918Z" fill="#F6C19D"/>
<path d="M522.921 36.1543C522.921 36.1543 569.939 4.70311 580.642 25.4045C591.398 46.1059 519.566 119.439 519.566 119.439L522.921 36.1543Z" fill="#F19A5E"/>
<path d="M522.921 173.135C522.921 173.135 569.939 141.683 580.642 162.385C591.398 183.086 519.566 256.419 519.566 256.419L522.921 173.135Z" fill="#F19A5E"/>
<path d="M522.921 266.477C522.921 266.477 569.939 235.026 580.642 255.727C591.398 276.429 519.566 349.762 519.566 349.762L522.921 266.477Z" fill="#F19A5E"/>
<path d="M490.44 0.924683H232.4C213.177 0.924683 197.629 16.5172 197.629 35.6753V464.817V562.736C197.629 582.107 213.39 597.487 232.4 597.487H490.44C509.662 597.487 525.211 581.947 525.211 562.736V133.594V35.6753C525.264 16.3044 509.502 0.924683 490.44 0.924683Z" fill="#141414"/>
<path opacity="0.2" d="M221.111 444.062C221.111 444.062 174.413 558.266 178.939 579.818C183.465 601.425 211.793 630.268 281.281 620.636C350.77 611.004 398.8 598.125 398.8 598.125C398.8 598.125 401.728 444.009 398.8 436.186C395.871 428.363 270.951 372.911 266.052 372.911C261.154 373.017 221.111 444.062 221.111 444.062Z" fill="#F6C19D"/>
<path d="M508.384 48.3409H214.455V550.177H508.384V48.3409Z" fill="white"/>
<path d="M433.73 390.632H289.162C279.098 390.632 270.898 382.49 270.898 372.379V181.011C270.898 170.953 279.045 162.757 289.162 162.757H433.73C443.794 162.757 451.994 170.9 451.994 181.011V372.379C451.994 382.49 443.794 390.632 433.73 390.632Z" fill="#3E28A9"/>
<path d="M298.48 255.036L312.857 323.845C313.496 326.825 316.052 328.954 319.034 328.954H403.911C406.893 328.954 409.449 326.825 410.088 323.845L424.465 255.036H298.48ZM323.773 322.355C321.856 322.355 320.312 320.812 320.312 318.896L315.466 270.096C315.466 268.18 317.011 266.637 318.928 266.637C320.845 266.637 322.389 268.18 322.389 270.096L327.234 318.896C327.234 320.758 325.69 322.355 323.773 322.355ZM341.238 322.355C339.322 322.355 337.777 320.812 337.777 318.896L335.86 270.096C335.86 268.18 337.405 266.637 339.322 266.637C341.239 266.637 342.783 268.18 342.783 270.096L344.7 318.896C344.753 320.758 343.209 322.355 341.238 322.355ZM364.881 318.843C364.881 320.758 363.336 322.302 361.42 322.302C359.503 322.302 357.958 320.758 357.958 318.843V270.043C357.958 268.127 359.503 266.584 361.42 266.584C363.336 266.584 364.881 268.127 364.881 270.043V318.843ZM385.062 318.843C385.062 320.758 383.517 322.302 381.601 322.302C379.684 322.302 378.139 320.758 378.139 318.843L380.056 270.043C380.056 268.127 381.601 266.584 383.517 266.584C385.434 266.584 386.979 268.127 386.979 270.043L385.062 318.843ZM402.527 318.843C402.527 320.758 400.983 322.302 399.066 322.302C397.149 322.302 395.605 320.758 395.605 318.843L400.45 270.043C400.45 268.127 401.994 266.584 403.911 266.584C405.828 266.584 407.373 268.127 407.373 270.043L402.527 318.843Z" fill="#FFDE9D"/>
<path d="M425.264 260.623H297.575C294.487 260.623 292.037 258.122 292.037 255.089C292.037 252.002 294.54 249.554 297.575 249.554H425.264C428.352 249.554 430.802 252.055 430.802 255.089C430.855 258.122 428.352 260.623 425.264 260.623Z" fill="#FFB218"/>
<path d="M324.412 249.927V245.137C324.412 237.155 330.908 230.662 338.896 230.662H383.997C391.984 230.662 398.48 237.155 398.48 245.137V249.927C398.48 251.63 399.865 253.013 401.569 253.013C403.272 253.013 404.657 251.63 404.657 249.927V245.137C404.657 233.696 395.392 224.436 383.943 224.436H338.842C327.394 224.436 318.129 233.696 318.129 245.137V249.927C318.129 251.63 319.513 253.013 321.217 253.013C323.028 253.013 324.412 251.63 324.412 249.927Z" fill="#FFDE9D"/>
<path d="M422.016 32.5355H301.303C299.918 32.5355 298.8 31.418 298.8 30.0343V28.8103C298.8 27.4267 299.918 26.3091 301.303 26.3091H422.016C423.4 26.3091 424.519 27.4267 424.519 28.8103V30.0343C424.572 31.418 423.4 32.5355 422.016 32.5355Z" fill="white"/>
<path d="M191.771 351.837C191.771 351.837 193.529 358.436 197.575 361.682L202.315 306.922C202.315 306.922 236.5 268.766 228.246 217.305C225.424 199.69 216.638 183.459 203.22 171.698C195.552 164.993 187.139 160.469 182.187 166.802C182.187 166.802 143.475 258.92 116.745 326.24L191.771 351.837Z" fill="#F6C19D"/>
<path opacity="0.3" d="M375.69 574.337C375.69 582.32 369.247 588.759 361.26 588.759C353.273 588.759 346.83 582.32 346.83 574.337C346.83 566.355 353.273 559.915 361.26 559.915C369.247 559.915 375.69 566.355 375.69 574.337Z" fill="#DAE7F7"/>
<path d="M365.573 580.351H356.947C355.988 580.351 355.243 579.605 355.243 578.648V570.026C355.243 569.069 355.988 568.323 356.947 568.323H365.573C366.531 568.323 367.277 569.069 367.277 570.026V578.648C367.277 579.552 366.531 580.351 365.573 580.351ZM356.947 568.749C356.254 568.749 355.722 569.281 355.722 569.973V578.594C355.722 579.286 356.254 579.818 356.947 579.818H365.573C366.265 579.818 366.798 579.286 366.798 578.594V569.973C366.798 569.281 366.265 568.749 365.573 568.749H356.947Z" fill="#DAE7F7"/>
<path d="M508.384 520.482H214.455V550.177H508.384V520.482Z" fill="#E2DCFF"/>
<path d="M508.384 48.3409H214.455V74.9494H508.384V48.3409Z" fill="#D0E1F5"/>
<path d="M189.162 220.87C199.865 215.974 205.456 188.142 207.426 175.636C198.853 167.015 188.097 159.245 182.187 166.749C182.187 166.749 173.667 187.024 161.846 215.495C169.94 220.019 181.175 224.542 189.162 220.87Z" fill="#F19A5E"/>
<path d="M64.4022 695.086C87.8846 709.508 163.497 752.614 241.665 761.82C246.244 762.353 249.439 766.557 248.108 770.175L234.476 806.735C233.571 809.13 230.855 810.567 227.82 810.195C204.764 807.374 109.716 793.112 42.8368 741.385C40.5471 739.629 39.5886 736.968 40.4406 734.68L54.3916 697.375C55.6695 693.862 60.5684 692.745 64.4022 695.086Z" fill="#141414"/>
<path d="M57.5332 730.05L57.267 729.943C55.8825 729.411 55.1903 727.921 55.7228 726.538L59.9294 715.309C60.4619 713.925 61.9528 713.233 63.3373 713.765L63.6035 713.872C64.988 714.404 65.6802 715.894 65.1477 717.278L60.9411 728.507C60.4086 729.89 58.9177 730.582 57.5332 730.05Z" fill="black"/>
<path d="M71.5907 738.724L71.3244 738.618C69.94 738.086 69.2478 736.596 69.7802 735.212L73.9868 723.983C74.5193 722.6 76.0103 721.908 77.3947 722.44L77.661 722.546C79.0454 723.079 79.7376 724.569 79.2051 725.952L74.9986 737.181C74.5193 738.565 72.9751 739.256 71.5907 738.724Z" fill="black"/>
<path d="M85.7014 747.345L85.4352 747.239C84.0507 746.707 83.3585 745.217 83.891 743.833L88.0976 732.604C88.63 731.221 90.121 730.529 91.5054 731.061L91.7717 731.167C93.1561 731.7 93.8483 733.19 93.3159 734.573L89.1093 745.802C88.5768 747.133 87.0326 747.824 85.7014 747.345Z" fill="black"/>
<path d="M100.185 754.317L99.9187 754.21C98.5342 753.678 97.842 752.188 98.3745 750.805L102.581 739.576C103.114 738.192 104.604 737.5 105.989 738.032L106.255 738.139C107.64 738.671 108.332 740.161 107.799 741.545L103.593 752.774C103.06 754.157 101.569 754.849 100.185 754.317Z" fill="black"/>
<path d="M114.455 762.459L114.189 762.353C112.805 761.82 112.112 760.33 112.645 758.947L116.851 747.718C117.384 746.334 118.875 745.642 120.259 746.175L120.526 746.281C121.91 746.813 122.602 748.303 122.07 749.687L117.863 760.916C117.331 762.246 115.787 762.938 114.455 762.459Z" fill="black"/>
<path d="M129.311 768.898L129.045 768.792C127.661 768.26 126.969 766.769 127.501 765.386L131.708 754.157C132.24 752.773 133.731 752.082 135.116 752.614L135.382 752.72C136.766 753.252 137.458 754.742 136.926 756.126L132.719 767.355C132.24 768.738 130.696 769.43 129.311 768.898Z" fill="black"/>
<path d="M144.487 774.539L144.221 774.433C142.837 773.901 142.144 772.411 142.677 771.027L146.883 759.798C147.416 758.415 148.907 757.723 150.291 758.255L150.558 758.361C151.942 758.894 152.634 760.384 152.102 761.767L147.895 772.996C147.416 774.38 145.872 775.071 144.487 774.539Z" fill="black"/>
<path d="M159.982 779.435L159.716 779.329C158.332 778.797 157.639 777.307 158.172 775.923L162.379 764.694C162.911 763.31 164.402 762.619 165.786 763.151L166.053 763.257C167.437 763.789 168.129 765.28 167.597 766.663L163.39 777.892C162.858 779.276 161.367 779.967 159.982 779.435Z" fill="black"/>
<path d="M176.063 782.628L175.797 782.522C174.413 781.99 173.72 780.5 174.253 779.116L178.459 767.887C178.992 766.503 180.483 765.812 181.867 766.344L182.134 766.45C183.518 766.982 184.21 768.473 183.678 769.856L179.471 781.085C178.992 782.469 177.448 783.16 176.063 782.628Z" fill="black"/>
<path d="M191.771 786.992L191.505 786.886C190.121 786.353 189.429 784.863 189.961 783.48L194.168 772.251C194.7 770.867 196.191 770.175 197.575 770.708L197.842 770.814C199.226 771.346 199.918 772.836 199.386 774.22L195.179 785.449C194.647 786.779 193.103 787.471 191.771 786.992Z" fill="black"/>
<path d="M208.012 789.706L207.746 789.6C206.362 789.067 205.669 787.577 206.202 786.194L210.408 774.965C210.941 773.581 212.432 772.889 213.816 773.422L214.082 773.528C215.467 774.06 216.159 775.55 215.627 776.934L211.42 788.163C210.941 789.493 209.397 790.185 208.012 789.706Z" fill="black"/>
<path d="M224.306 792.367L224.04 792.26C222.655 791.728 221.963 790.238 222.496 788.855L226.702 777.626C227.235 776.242 228.726 775.55 230.11 776.083L230.376 776.189C231.761 776.721 232.453 778.211 231.92 779.595L227.714 790.824C227.235 792.207 225.69 792.899 224.306 792.367Z" fill="black"/>
<path d="M110.781 779.754L110.834 779.595C110.568 779.542 110.355 779.488 110.089 779.435L91.6119 772.517C89.8015 771.825 88.8963 769.696 89.6418 767.727L106.308 723.078C107.054 721.109 109.131 720.045 110.941 720.737L129.418 727.655C130.483 728.081 131.228 728.985 131.548 730.103C132.986 730.742 134.477 731.38 135.968 732.019C136.447 728.294 134.53 724.622 131.069 723.345L112.592 716.426C108.545 714.936 103.912 717.225 102.262 721.642L85.5949 766.291C83.9442 770.654 85.9144 775.444 89.9612 776.987L108.438 783.905C111.207 784.917 114.242 784.171 116.425 782.202C114.562 781.298 112.698 780.553 110.781 779.754Z" fill="#AC8CCE"/>
<path d="M106.734 744.312L98.694 741.332C97.2563 740.8 95.6056 741.598 95.0198 743.195C94.4341 744.738 95.1263 746.441 96.564 746.973L104.604 749.953L106.734 744.312Z" fill="white"/>
<path d="M458.651 378.818C458.651 378.818 418.981 382.171 417.543 392.708C416.159 403.245 419.194 421.817 456.68 425.436H495.498C495.498 425.436 483.89 393.24 484.423 392.122C485.062 391.005 458.651 378.818 458.651 378.818Z" fill="#F3A875"/>
<path d="M394.966 536.074C389.588 538.948 387.724 545.706 390.759 550.975C409.023 582.479 481.654 707.592 488.203 717.757C495.711 729.411 514.028 756.871 574.784 771.027C635.594 785.183 660.567 825.947 660.567 825.947H847.947C847.947 825.947 803.804 756.02 767.169 574.603C767.169 574.603 738.842 423.946 685.54 428.948C685.54 428.948 653.059 394.836 621.43 401.489C621.43 401.489 561.472 365.727 527.34 365.727L445.338 268.872C437.245 259.293 422.921 257.43 412.91 265.04C409.716 267.488 407.266 270.735 406.574 275.045C404.071 290.851 424.891 330.816 458.225 379.084C491.558 427.352 573.986 580.51 538.15 647.883C538.15 647.883 501.515 620.423 469.886 576.306C443.422 539.374 412.218 526.921 394.966 536.074Z" fill="#F6C19D"/>
<path d="M527.66 365.78C538.523 375.093 548.746 385.204 558.384 395.794C571.377 409.95 587.83 430.917 597.468 447.095C609.609 467.105 617.649 484.667 621.43 506.752L621.164 506.805C616.797 486.103 605.402 463.752 595.445 448.373C587.99 436.292 574.252 417.187 556.893 397.071C548.16 387.013 537.085 375.146 527.5 365.94L527.66 365.78Z" fill="#F19A5E"/>
<path d="M620.95 401.276C629.79 405.799 637.724 412.132 644.699 419.263C651.781 426.394 657.638 434.43 662.697 443.211C667.649 451.938 671.43 461.304 673.932 470.99C676.062 480.037 677.5 486.157 677.713 500.525H677.447C676.648 490.733 674.837 480.995 672.069 471.522C669.246 462.369 665.306 452.577 660.514 444.435C655.721 435.867 649.864 427.831 643.261 420.54C636.978 413.675 628.778 406.278 620.844 401.435L620.95 401.276Z" fill="#F19A5E"/>
<path d="M684.901 428.31C692.729 434.217 700.663 444.701 704.497 451.779C709.342 460.08 713.176 469.766 715.679 480.303C717.542 487.061 718.022 493.607 718.288 500.525L718.022 500.578C716.85 493.926 716.158 488.924 713.762 480.888C710.141 468.648 707.266 462.369 702.367 452.949C699.438 447.149 691.877 435.654 684.742 428.523L684.901 428.31Z" fill="#F19A5E"/>
<path d="M432.825 574.816C434.476 566.408 424.678 553.05 415.733 542.939C410.142 536.66 401.356 534.318 393.635 536.926C389.322 540.119 387.99 546.185 390.759 550.975C395.658 559.436 404.497 574.656 414.934 592.591C422.761 588.652 431.281 582.639 432.825 574.816Z" fill="#F19A5E"/>
<path d="M440.653 306.869C445.392 305.911 466.904 298.78 465.573 294.842L444.38 269.777C440.173 264.827 434.316 261.9 428.246 261.315C428.193 261.315 428.193 261.315 428.139 261.315C427.98 261.315 427.554 261.262 427.021 261.262C424.199 261.262 417.17 262.06 415.626 269.777C414.082 277.387 426.702 295.853 432.24 303.516C434.156 306.23 437.458 307.507 440.653 306.869Z" fill="#F19A5E"/>
<path opacity="0.2" d="M660.62 826H848C848 826 819.086 780.18 788.575 666.402C775.21 750.166 701.461 745.323 672.175 750.006C638.469 755.381 507.639 728.081 489.321 719.513C497.468 731.966 516.797 757.616 574.838 771.08C635.647 785.183 660.62 826 660.62 826Z" fill="#F6C19D"/>
<path opacity="0.2" d="M468.182 394.251C504.923 453.269 570.844 588.759 538.203 647.883L559.822 669.223C559.822 669.223 614.507 608.662 527.5 475.141C507.266 444.062 487.138 417.187 468.182 394.251Z" fill="#F6C19D"/>
<path d="M408.491 148.389H408.278C395.392 148.389 384.955 137.958 384.955 125.08V107.625H431.814V125.08C431.814 137.958 421.377 148.389 408.491 148.389Z" fill="#3E28A9"/>
<path d="M361.579 148.389H361.366C348.48 148.389 338.044 137.958 338.044 125.08V107.625H384.902V125.08C384.902 137.958 374.465 148.389 361.579 148.389Z" fill="#9A8AE7"/>
<path d="M314.721 148.389H314.508C301.622 148.389 291.186 137.958 291.186 125.08V107.625H338.044V125.08C338.044 137.958 327.607 148.389 314.721 148.389Z" fill="#3E28A9"/>
<path d="M267.81 148.389H267.597C254.711 148.389 244.274 137.958 244.274 125.08V107.625H291.132V125.08C291.132 137.958 280.696 148.389 267.81 148.389Z" fill="#9A8AE7"/>
<path d="M220.951 148.389H220.738C207.852 148.389 197.416 137.958 197.416 125.08V107.625H244.274V125.08C244.274 137.958 233.837 148.389 220.951 148.389Z" fill="#3E28A9"/>
<path d="M549.012 148.389H548.799C535.913 148.389 525.477 137.958 525.477 125.08V107.625H572.335V125.08C572.335 137.958 561.898 148.389 549.012 148.389Z" fill="#9A8AE7"/>
<path d="M502.154 148.389H501.941C489.055 148.389 478.619 137.958 478.619 125.08V107.625H525.477V125.08C525.477 137.958 515.04 148.389 502.154 148.389Z" fill="#3E28A9"/>
<path d="M455.349 148.389H455.136C442.25 148.389 431.813 137.958 431.813 125.08V107.625H478.672V125.08C478.672 137.958 468.235 148.389 455.349 148.389Z" fill="#9A8AE7"/>
<path d="M174.093 148.389H173.88C160.994 148.389 150.557 137.958 150.557 125.08V107.625H197.416V125.08C197.416 137.958 186.926 148.389 174.093 148.389Z" fill="#9A8AE7"/>
<path d="M378.139 48.3409H344.806L338.044 107.571H384.902L378.139 48.3409Z" fill="#E2DCFF"/>
<path d="M344.806 48.3409H311.473L291.132 107.571H338.044L344.806 48.3409Z" fill="#4C32CB"/>
<path d="M311.473 48.3409H278.14L244.274 107.571H291.132L311.473 48.3409Z" fill="#E2DCFF"/>
<path d="M278.14 48.3409H244.807L197.416 107.571H244.274L278.14 48.3409Z" fill="#4C32CB"/>
<path d="M244.807 48.3409H211.473L150.504 107.571H197.416L244.807 48.3409Z" fill="#E2DCFF"/>
<path d="M511.26 48.3409H477.926L525.477 107.571H572.335L511.26 48.3409Z" fill="#E2DCFF"/>
<path d="M478.086 48.3409H444.753L478.565 107.571H525.477L478.086 48.3409Z" fill="#4C32CB"/>
<path d="M444.753 48.3409H411.42L431.814 107.571H478.672L444.753 48.3409Z" fill="#E2DCFF"/>
<path d="M411.42 48.3409H378.086L384.902 107.571H431.814L411.42 48.3409Z" fill="#4C32CB"/>
<path d="M452.125 473H270.875C260.98 473 253 462.883 253 450.339V443.662C253 431.117 260.98 421 270.875 421H452.125C462.02 421 470 431.117 470 443.662V450.339C470 462.816 461.967 473 452.125 473Z" fill="#26CE37"/>
</svg>